<svg width="21" height="20" viewBox="0 0 21 20" fill="none" xmlns="http://www.w3.org/2000/svg">
<path d="M8.76758 0.50293C10.9406 0.44349 13.054 1.21914 14.6729 2.66992C16.2916 4.12062 17.2934 6.13638 17.4717 8.30273C17.6499 10.4693 16.991 12.6225 15.6309 14.3184L15.3496 14.6689L15.6689 14.9863L19.3701 18.6582H19.3711C19.4612 18.7514 19.5117 18.8762 19.5117 19.0059C19.5117 19.1345 19.4618 19.2576 19.373 19.3506C19.3271 19.3964 19.2728 19.433 19.2129 19.458C19.152 19.4833 19.0865 19.4971 19.0205 19.4971C18.9546 19.497 18.8889 19.4833 18.8281 19.458C18.7674 19.4326 18.7124 19.3954 18.666 19.3486L18.6641 19.3477L14.9844 15.667L14.668 15.3506L14.3184 15.6309C12.6225 16.991 10.4693 17.6499 8.30273 17.4717C6.13638 17.2934 4.12062 16.2916 2.66992 14.6729C1.21914 13.054 0.44349 10.9406 0.50293 8.76758C0.562392 6.59452 1.4521 4.52642 2.98926 2.98926C4.52642 1.4521 6.59452 0.562392 8.76758 0.50293ZM11.8906 2.0918C10.5203 1.52426 9.01235 1.37567 7.55762 1.66504C6.1028 1.95444 4.76664 2.66891 3.71777 3.71777C2.66891 4.76664 1.95444 6.1028 1.66504 7.55762C1.37567 9.01235 1.52426 10.5203 2.0918 11.8906C2.65945 13.2611 3.62112 14.4327 4.85449 15.2568C6.08771 16.0808 7.53737 16.5204 9.02051 16.5205C11.0096 16.5205 12.9177 15.7307 14.3242 14.3242C15.7307 12.9177 16.5205 11.0096 16.5205 9.02051C16.5204 7.53737 16.0808 6.08771 15.2568 4.85449C14.4327 3.62112 13.2611 2.65945 11.8906 2.0918Z" stroke="#01959F"/>
</svg>
